<?xml version="1.0" encoding="UTF-8"?>
<svg xmlns="http://www.w3.org/2000/svg" xmlns:xlink="http://www.w3.org/1999/xlink" width="1080" height="1920" viewBox="0 0 1080 1920">
<defs>
<g>
<g id="glyph-0-0">
<path d="M 4.019531 -1.878906 C 4.019531 -1.292969 3.871094 -0.824219 3.574219 -0.464844 C 3.28125 -0.105469 2.914062 0.0703125 2.480469 0.0703125 C 2.296875 0.0703125 2.140625 0.0507812 2.003906 0.0078125 C 1.871094 -0.03125 1.726562 -0.09375 1.574219 -0.183594 L 1.574219 1.339844 L 0.4375 1.339844 L 0.4375 -3.65625 L 1.574219 -3.65625 L 1.574219 -3.273438 C 1.742188 -3.417969 1.914062 -3.535156 2.085938 -3.621094 C 2.261719 -3.710938 2.460938 -3.757812 2.6875 -3.757812 C 3.113281 -3.757812 3.441406 -3.589844 3.671875 -3.25 C 3.902344 -2.914062 4.019531 -2.457031 4.019531 -1.878906 M 2.855469 -1.855469 C 2.855469 -2.210938 2.800781 -2.46875 2.691406 -2.628906 C 2.582031 -2.789062 2.410156 -2.871094 2.179688 -2.871094 C 2.074219 -2.871094 1.972656 -2.855469 1.875 -2.820312 C 1.773438 -2.789062 1.671875 -2.742188 1.574219 -2.675781 L 1.574219 -0.835938 C 1.636719 -0.808594 1.703125 -0.792969 1.777344 -0.78125 C 1.847656 -0.769531 1.933594 -0.765625 2.035156 -0.765625 C 2.3125 -0.765625 2.519531 -0.855469 2.652344 -1.035156 C 2.789062 -1.21875 2.855469 -1.492188 2.855469 -1.855469 Z "/>
</g>
<g id="glyph-0-1">
<path d="M 3.945312 -1.824219 C 3.945312 -1.226562 3.78125 -0.75 3.453125 -0.40625 C 3.125 -0.0585938 2.660156 0.113281 2.058594 0.113281 C 1.460938 0.113281 0.996094 -0.0585938 0.664062 -0.40625 C 0.335938 -0.75 0.167969 -1.226562 0.167969 -1.824219 C 0.167969 -2.433594 0.335938 -2.910156 0.664062 -3.253906 C 0.996094 -3.597656 1.460938 -3.769531 2.058594 -3.769531 C 2.65625 -3.769531 3.121094 -3.597656 3.449219 -3.25 C 3.78125 -2.902344 3.945312 -2.429688 3.945312 -1.824219 M 2.777344 -1.820312 C 2.777344 -2.035156 2.757812 -2.21875 2.722656 -2.363281 C 2.6875 -2.507812 2.636719 -2.621094 2.574219 -2.707031 C 2.507812 -2.800781 2.429688 -2.863281 2.347656 -2.898438 C 2.261719 -2.933594 2.164062 -2.953125 2.058594 -2.953125 C 1.957031 -2.953125 1.863281 -2.9375 1.78125 -2.90625 C 1.699219 -2.875 1.621094 -2.8125 1.550781 -2.722656 C 1.488281 -2.640625 1.433594 -2.523438 1.394531 -2.375 C 1.355469 -2.230469 1.335938 -2.042969 1.335938 -1.820312 C 1.335938 -1.597656 1.355469 -1.414062 1.394531 -1.277344 C 1.429688 -1.140625 1.476562 -1.03125 1.535156 -0.945312 C 1.597656 -0.863281 1.671875 -0.800781 1.765625 -0.761719 C 1.855469 -0.722656 1.957031 -0.703125 2.066406 -0.703125 C 2.15625 -0.703125 2.25 -0.722656 2.34375 -0.761719 C 2.441406 -0.800781 2.515625 -0.859375 2.570312 -0.9375 C 2.640625 -1.03125 2.691406 -1.144531 2.722656 -1.273438 C 2.757812 -1.40625 2.777344 -1.585938 2.777344 -1.820312 Z "/>
</g>
<g id="glyph-0-2">
<path d="M 3.832031 0 L 2.691406 0 L 2.691406 -0.402344 C 2.496094 -0.238281 2.3125 -0.113281 2.148438 -0.0273438 C 1.984375 0.0585938 1.785156 0.101562 1.558594 0.101562 C 1.195312 0.101562 0.914062 -0.0117188 0.710938 -0.242188 C 0.507812 -0.472656 0.40625 -0.816406 0.40625 -1.277344 L 0.40625 -3.65625 L 1.550781 -3.65625 L 1.550781 -1.84375 C 1.550781 -1.652344 1.558594 -1.5 1.566406 -1.378906 C 1.578125 -1.261719 1.601562 -1.160156 1.636719 -1.078125 C 1.671875 -1 1.726562 -0.945312 1.796875 -0.90625 C 1.871094 -0.867188 1.972656 -0.847656 2.101562 -0.847656 C 2.183594 -0.847656 2.277344 -0.867188 2.386719 -0.90625 C 2.496094 -0.945312 2.597656 -0.996094 2.691406 -1.0625 L 2.691406 -3.65625 L 3.832031 -3.65625 Z "/>
</g>
<g id="glyph-0-3">
<path d="M 2.890625 -2.578125 L 2.796875 -2.578125 C 2.753906 -2.59375 2.691406 -2.605469 2.605469 -2.613281 C 2.523438 -2.621094 2.433594 -2.625 2.335938 -2.625 C 2.214844 -2.625 2.089844 -2.605469 1.957031 -2.570312 C 1.828125 -2.535156 1.699219 -2.496094 1.574219 -2.449219 L 1.574219 0 L 0.4375 0 L 0.4375 -3.65625 L 1.574219 -3.65625 L 1.574219 -3.132812 C 1.628906 -3.179688 1.699219 -3.238281 1.792969 -3.3125 C 1.882812 -3.386719 1.96875 -3.441406 2.042969 -3.484375 C 2.125 -3.535156 2.222656 -3.578125 2.332031 -3.613281 C 2.441406 -3.652344 2.546875 -3.667969 2.644531 -3.667969 C 2.679688 -3.667969 2.722656 -3.667969 2.765625 -3.664062 C 2.8125 -3.664062 2.855469 -3.660156 2.890625 -3.65625 Z "/>
</g>
<g id="glyph-0-4">
</g>
<g id="glyph-0-5">
<path d="M 4.804688 0 L 4.804688 -1.824219 C 4.804688 -2.007812 4.800781 -2.15625 4.796875 -2.28125 C 4.789062 -2.40625 4.769531 -2.507812 4.734375 -2.585938 C 4.703125 -2.664062 4.652344 -2.71875 4.585938 -2.753906 C 4.515625 -2.792969 4.421875 -2.808594 4.296875 -2.808594 C 4.210938 -2.808594 4.125 -2.789062 4.039062 -2.753906 C 3.953125 -2.714844 3.863281 -2.660156 3.761719 -2.589844 L 3.761719 0 L 2.617188 0 L 2.617188 -1.824219 C 2.617188 -2.003906 2.613281 -2.15625 2.605469 -2.28125 C 2.597656 -2.40625 2.578125 -2.507812 2.546875 -2.585938 C 2.511719 -2.664062 2.460938 -2.71875 2.394531 -2.753906 C 2.324219 -2.792969 2.230469 -2.808594 2.109375 -2.808594 C 2.015625 -2.808594 1.925781 -2.789062 1.835938 -2.742188 C 1.746094 -2.699219 1.660156 -2.648438 1.574219 -2.589844 L 1.574219 0 L 0.4375 0 L 0.4375 -3.65625 L 1.574219 -3.65625 L 1.574219 -3.25 C 1.761719 -3.410156 1.9375 -3.535156 2.101562 -3.621094 C 2.269531 -3.710938 2.453125 -3.757812 2.660156 -3.757812 C 2.882812 -3.757812 3.078125 -3.703125 3.25 -3.597656 C 3.417969 -3.492188 3.546875 -3.332031 3.636719 -3.121094 C 3.855469 -3.324219 4.0625 -3.484375 4.257812 -3.59375 C 4.449219 -3.703125 4.648438 -3.757812 4.847656 -3.757812 C 5.015625 -3.757812 5.167969 -3.730469 5.300781 -3.675781 C 5.4375 -3.621094 5.550781 -3.539062 5.644531 -3.429688 C 5.746094 -3.3125 5.824219 -3.175781 5.875 -3.011719 C 5.925781 -2.851562 5.949219 -2.640625 5.949219 -2.378906 L 5.949219 0 Z "/>
</g>
<g id="glyph-0-6">
<path d="M 2.453125 -0.953125 L 2.453125 -1.714844 C 2.257812 -1.695312 2.101562 -1.679688 1.980469 -1.664062 C 1.863281 -1.652344 1.746094 -1.625 1.628906 -1.582031 C 1.53125 -1.546875 1.453125 -1.496094 1.398438 -1.425781 C 1.34375 -1.355469 1.316406 -1.257812 1.316406 -1.140625 C 1.316406 -0.972656 1.359375 -0.851562 1.453125 -0.789062 C 1.546875 -0.726562 1.683594 -0.691406 1.863281 -0.691406 C 1.960938 -0.691406 2.0625 -0.714844 2.167969 -0.761719 C 2.273438 -0.808594 2.367188 -0.871094 2.453125 -0.953125 M 2.453125 -0.386719 C 2.375 -0.320312 2.304688 -0.265625 2.242188 -0.210938 C 2.179688 -0.160156 2.097656 -0.105469 1.992188 -0.0546875 C 1.890625 -0.00390625 1.789062 0.03125 1.695312 0.0585938 C 1.597656 0.0859375 1.460938 0.0976562 1.289062 0.0976562 C 0.964844 0.0976562 0.695312 -0.0117188 0.484375 -0.226562 C 0.269531 -0.445312 0.164062 -0.71875 0.164062 -1.046875 C 0.164062 -1.320312 0.21875 -1.539062 0.324219 -1.707031 C 0.433594 -1.871094 0.589844 -2.003906 0.792969 -2.101562 C 1 -2.203125 1.246094 -2.273438 1.53125 -2.3125 C 1.820312 -2.351562 2.128906 -2.378906 2.457031 -2.402344 L 2.457031 -2.421875 C 2.457031 -2.625 2.382812 -2.761719 2.234375 -2.839844 C 2.085938 -2.917969 1.863281 -2.957031 1.566406 -2.957031 C 1.429688 -2.957031 1.273438 -2.929688 1.09375 -2.882812 C 0.914062 -2.832031 0.738281 -2.769531 0.566406 -2.695312 L 0.46875 -2.695312 L 0.46875 -3.578125 C 0.582031 -3.609375 0.765625 -3.648438 1.015625 -3.691406 C 1.265625 -3.738281 1.519531 -3.757812 1.777344 -3.757812 C 2.40625 -3.757812 2.863281 -3.65625 3.152344 -3.445312 C 3.441406 -3.234375 3.582031 -2.917969 3.582031 -2.488281 L 3.582031 0 L 2.453125 0 Z "/>
</g>
<g id="glyph-0-7">
<path d="M 2.230469 0.0976562 C 1.929688 0.0976562 1.652344 0.0585938 1.402344 -0.015625 C 1.152344 -0.09375 0.933594 -0.210938 0.75 -0.367188 C 0.566406 -0.527344 0.425781 -0.726562 0.320312 -0.964844 C 0.21875 -1.203125 0.167969 -1.488281 0.167969 -1.8125 C 0.167969 -2.164062 0.222656 -2.460938 0.335938 -2.703125 C 0.445312 -2.949219 0.59375 -3.152344 0.785156 -3.308594 C 0.964844 -3.460938 1.179688 -3.574219 1.425781 -3.648438 C 1.671875 -3.71875 1.929688 -3.757812 2.195312 -3.757812 C 2.398438 -3.757812 2.601562 -3.734375 2.800781 -3.6875 C 3.003906 -3.640625 3.207031 -3.566406 3.410156 -3.464844 L 3.410156 -2.488281 L 3.265625 -2.488281 C 3.21875 -2.53125 3.164062 -2.578125 3.097656 -2.628906 C 3.03125 -2.683594 2.957031 -2.730469 2.878906 -2.773438 C 2.796875 -2.820312 2.703125 -2.859375 2.601562 -2.890625 C 2.496094 -2.921875 2.378906 -2.9375 2.253906 -2.9375 C 1.960938 -2.9375 1.738281 -2.835938 1.578125 -2.632812 C 1.417969 -2.429688 1.335938 -2.15625 1.335938 -1.8125 C 1.335938 -1.445312 1.421875 -1.171875 1.59375 -0.992188 C 1.765625 -0.8125 1.988281 -0.722656 2.273438 -0.722656 C 2.414062 -0.722656 2.542969 -0.738281 2.648438 -0.769531 C 2.757812 -0.804688 2.851562 -0.84375 2.929688 -0.886719 C 3.003906 -0.933594 3.070312 -0.980469 3.125 -1.03125 C 3.179688 -1.078125 3.226562 -1.125 3.265625 -1.164062 L 3.410156 -1.164062 L 3.410156 -0.183594 C 3.347656 -0.15625 3.269531 -0.125 3.183594 -0.0859375 C 3.097656 -0.0507812 3.011719 -0.0195312 2.921875 0.00390625 C 2.8125 0.0351562 2.707031 0.0585938 2.613281 0.0742188 C 2.515625 0.0898438 2.386719 0.0976562 2.230469 0.0976562 Z "/>
</g>
<g id="glyph-0-8">
<path d="M 3.859375 0 L 2.714844 0 L 2.714844 -1.8125 C 2.714844 -1.960938 2.707031 -2.109375 2.695312 -2.253906 C 2.683594 -2.402344 2.664062 -2.507812 2.628906 -2.578125 C 2.589844 -2.660156 2.535156 -2.71875 2.460938 -2.753906 C 2.386719 -2.792969 2.289062 -2.808594 2.164062 -2.808594 C 2.070312 -2.808594 1.976562 -2.792969 1.882812 -2.757812 C 1.785156 -2.722656 1.683594 -2.667969 1.574219 -2.589844 L 1.574219 0 L 0.4375 0 L 0.4375 -5.066406 L 1.574219 -5.066406 L 1.574219 -3.25 C 1.761719 -3.410156 1.945312 -3.535156 2.121094 -3.621094 C 2.296875 -3.710938 2.492188 -3.757812 2.707031 -3.757812 C 3.082031 -3.757812 3.367188 -3.640625 3.5625 -3.402344 C 3.761719 -3.167969 3.859375 -2.828125 3.859375 -2.378906 Z "/>
</g>
<g id="glyph-0-9">
<path d="M 2.308594 0.0976562 C 1.617188 0.0976562 1.089844 -0.0664062 0.722656 -0.398438 C 0.351562 -0.726562 0.167969 -1.195312 0.167969 -1.804688 C 0.167969 -2.402344 0.339844 -2.878906 0.683594 -3.234375 C 1.027344 -3.589844 1.507812 -3.769531 2.121094 -3.769531 C 2.683594 -3.769531 3.101562 -3.617188 3.386719 -3.316406 C 3.667969 -3.015625 3.808594 -2.582031 3.808594 -2.023438 L 3.808594 -1.609375 L 1.3125 -1.609375 C 1.324219 -1.441406 1.359375 -1.300781 1.417969 -1.1875 C 1.480469 -1.074219 1.558594 -0.980469 1.660156 -0.914062 C 1.757812 -0.847656 1.871094 -0.800781 2 -0.769531 C 2.132812 -0.742188 2.273438 -0.726562 2.429688 -0.726562 C 2.5625 -0.726562 2.691406 -0.742188 2.820312 -0.769531 C 2.945312 -0.800781 3.0625 -0.835938 3.171875 -0.886719 C 3.265625 -0.925781 3.351562 -0.972656 3.429688 -1.019531 C 3.507812 -1.066406 3.574219 -1.109375 3.621094 -1.144531 L 3.742188 -1.144531 L 3.742188 -0.203125 C 3.648438 -0.167969 3.566406 -0.132812 3.488281 -0.101562 C 3.410156 -0.0703125 3.304688 -0.0390625 3.171875 -0.0078125 C 3.046875 0.0273438 2.917969 0.0507812 2.789062 0.0703125 C 2.65625 0.0898438 2.496094 0.0976562 2.308594 0.0976562 M 2.683594 -2.296875 C 2.679688 -2.539062 2.625 -2.722656 2.519531 -2.847656 C 2.414062 -2.972656 2.25 -3.035156 2.035156 -3.035156 C 1.8125 -3.035156 1.640625 -2.972656 1.515625 -2.839844 C 1.390625 -2.707031 1.320312 -2.527344 1.308594 -2.296875 Z "/>
</g>
</g>
</defs>
<g fill="rgb(29.019608%, 9.803922%, 25.882353%)" fill-opacity="1">
<use xlink:href="#glyph-0-0" x="30" y="26.668945"/>
<use xlink:href="#glyph-0-1" x="34" y="26.668945"/>
<use xlink:href="#glyph-0-2" x="38" y="26.668945"/>
<use xlink:href="#glyph-0-3" x="42" y="26.668945"/>
<use xlink:href="#glyph-0-4" x="45" y="26.668945"/>
<use xlink:href="#glyph-0-5" x="47" y="26.668945"/>
<use xlink:href="#glyph-0-6" x="53" y="26.668945"/>
<use xlink:href="#glyph-0-3" x="57" y="26.668945"/>
<use xlink:href="#glyph-0-7" x="60" y="26.668945"/>
<use xlink:href="#glyph-0-8" x="64" y="26.668945"/>
<use xlink:href="#glyph-0-9" x="68" y="26.668945"/>
<use xlink:href="#glyph-0-3" x="72" y="26.668945"/>
</g>
</svg>
