<?xml version="1.0" encoding="UTF-8"?>
<svg xmlns="http://www.w3.org/2000/svg" xmlns:xlink="http://www.w3.org/1999/xlink" width="1080" height="1920" viewBox="0 0 1080 1920">
<defs>
<g>
<g id="glyph-0-0">
<path d="M 2.324219 -2.597656 L 2.324219 -1.0625 L 2.78125 -1.0625 L 2.78125 -0.882812 L 2.324219 -0.882812 L 2.324219 -0.578125 C 2.324219 -0.515625 2.429688 -0.484375 2.644531 -0.484375 L 2.644531 -0.335938 L 1.609375 -0.335938 L 1.609375 -0.484375 C 1.84375 -0.484375 1.960938 -0.523438 1.960938 -0.59375 L 1.960938 -0.882812 L 0.988281 -0.882812 L 0.988281 -1.007812 L 2.007812 -2.597656 L 2.324219 -2.597656 M 1.960938 -1.0625 L 1.960938 -2.234375 L 1.246094 -1.0625 L 1.960938 -1.0625 M 3.34375 -0.164062 C 3.035156 0.175781 2.609375 0.363281 2.074219 0.394531 C 1.539062 0.425781 1.082031 0.257812 0.703125 -0.105469 C 0.328125 -0.464844 0.132812 -0.890625 0.128906 -1.375 C 0.125 -1.859375 0.253906 -2.261719 0.523438 -2.582031 C 0.792969 -2.902344 1.0625 -3.097656 1.332031 -3.171875 C 1.605469 -3.246094 1.828125 -3.28125 2.003906 -3.28125 C 2.160156 -3.28125 2.367188 -3.25 2.625 -3.1875 C 2.878906 -3.125 3.148438 -2.929688 3.425781 -2.605469 C 3.703125 -2.28125 3.839844 -1.878906 3.828125 -1.398438 C 3.816406 -0.917969 3.65625 -0.507812 3.34375 -0.164062 M 2.605469 0.09375 C 2.851562 0.015625 3.082031 -0.171875 3.304688 -0.46875 C 3.523438 -0.769531 3.621094 -1.132812 3.601562 -1.566406 C 3.582031 -1.996094 3.410156 -2.363281 3.089844 -2.664062 C 2.769531 -2.964844 2.386719 -3.105469 1.9375 -3.09375 C 1.488281 -3.078125 1.109375 -2.902344 0.800781 -2.574219 C 0.488281 -2.242188 0.339844 -1.859375 0.347656 -1.421875 C 0.359375 -0.984375 0.496094 -0.628906 0.757812 -0.351562 C 1.019531 -0.0742188 1.261719 0.0898438 1.476562 0.140625 C 1.691406 0.1875 1.859375 0.210938 1.976562 0.210938 C 2.152344 0.210938 2.363281 0.171875 2.605469 0.09375 Z "/>
</g>
<g id="glyph-1-0">
</g>
<g id="glyph-1-1">
<path d="M 2.558594 -2.417969 C 2.722656 -2.308594 2.855469 -2.167969 2.957031 -1.988281 C 3.058594 -1.808594 3.109375 -1.589844 3.109375 -1.328125 C 3.109375 -1.101562 3.0625 -0.902344 2.972656 -0.734375 C 2.882812 -0.566406 2.761719 -0.425781 2.613281 -0.320312 C 2.460938 -0.210938 2.289062 -0.132812 2.09375 -0.078125 C 1.902344 -0.0273438 1.699219 0 1.488281 0 L 0.132812 0 L 0.132812 -0.148438 C 0.171875 -0.148438 0.222656 -0.152344 0.28125 -0.160156 C 0.34375 -0.164062 0.382812 -0.171875 0.40625 -0.183594 C 0.449219 -0.203125 0.480469 -0.226562 0.5 -0.257812 C 0.515625 -0.292969 0.527344 -0.332031 0.527344 -0.375 L 0.527344 -2.285156 C 0.527344 -2.328125 0.519531 -2.367188 0.5 -2.402344 C 0.484375 -2.4375 0.453125 -2.464844 0.40625 -2.488281 C 0.355469 -2.507812 0.304688 -2.523438 0.25 -2.53125 C 0.199219 -2.539062 0.15625 -2.542969 0.128906 -2.546875 L 0.128906 -2.695312 L 1.5625 -2.695312 C 1.714844 -2.695312 1.878906 -2.675781 2.054688 -2.636719 C 2.226562 -2.597656 2.394531 -2.523438 2.558594 -2.417969 M 2.171875 -0.484375 C 2.234375 -0.585938 2.277344 -0.707031 2.304688 -0.847656 C 2.335938 -0.988281 2.347656 -1.148438 2.347656 -1.332031 C 2.347656 -1.511719 2.332031 -1.671875 2.292969 -1.820312 C 2.253906 -1.964844 2.199219 -2.089844 2.125 -2.195312 C 2.050781 -2.300781 1.960938 -2.378906 1.851562 -2.4375 C 1.742188 -2.492188 1.617188 -2.523438 1.476562 -2.523438 C 1.433594 -2.523438 1.382812 -2.519531 1.328125 -2.519531 C 1.269531 -2.515625 1.226562 -2.515625 1.199219 -2.515625 L 1.199219 -0.46875 C 1.199219 -0.421875 1.207031 -0.382812 1.21875 -0.347656 C 1.230469 -0.3125 1.25 -0.28125 1.28125 -0.257812 C 1.308594 -0.230469 1.34375 -0.210938 1.386719 -0.195312 C 1.429688 -0.179688 1.484375 -0.171875 1.554688 -0.171875 C 1.695312 -0.171875 1.820312 -0.199219 1.921875 -0.253906 C 2.023438 -0.304688 2.105469 -0.382812 2.171875 -0.484375 Z "/>
</g>
<g id="glyph-1-2">
<path d="M 2.152344 -0.453125 C 2.105469 -0.382812 2.054688 -0.3125 1.992188 -0.25 C 1.929688 -0.1875 1.855469 -0.132812 1.777344 -0.0859375 C 1.691406 -0.0390625 1.605469 0 1.519531 0.0234375 C 1.433594 0.046875 1.332031 0.0625 1.222656 0.0625 C 1.035156 0.0625 0.871094 0.0351562 0.734375 -0.0195312 C 0.601562 -0.0703125 0.488281 -0.144531 0.398438 -0.234375 C 0.308594 -0.324219 0.242188 -0.429688 0.199219 -0.550781 C 0.15625 -0.675781 0.136719 -0.804688 0.136719 -0.949219 C 0.136719 -1.078125 0.160156 -1.203125 0.207031 -1.320312 C 0.253906 -1.4375 0.320312 -1.542969 0.410156 -1.636719 C 0.496094 -1.726562 0.601562 -1.800781 0.734375 -1.855469 C 0.863281 -1.910156 1.011719 -1.9375 1.171875 -1.9375 C 1.351562 -1.9375 1.496094 -1.917969 1.609375 -1.875 C 1.722656 -1.832031 1.820312 -1.773438 1.894531 -1.695312 C 1.964844 -1.625 2.019531 -1.539062 2.050781 -1.441406 C 2.082031 -1.34375 2.101562 -1.238281 2.101562 -1.132812 L 2.101562 -1.007812 L 0.816406 -1.007812 C 0.816406 -0.75 0.867188 -0.550781 0.964844 -0.414062 C 1.066406 -0.28125 1.226562 -0.210938 1.441406 -0.210938 C 1.5625 -0.210938 1.667969 -0.246094 1.765625 -0.308594 C 1.859375 -0.375 1.941406 -0.457031 2.007812 -0.558594 L 2.152344 -0.453125 M 1.425781 -1.175781 C 1.425781 -1.25 1.421875 -1.328125 1.414062 -1.410156 C 1.40625 -1.488281 1.394531 -1.554688 1.375 -1.605469 C 1.351562 -1.664062 1.324219 -1.710938 1.285156 -1.738281 C 1.25 -1.769531 1.203125 -1.785156 1.144531 -1.785156 C 1.046875 -1.785156 0.96875 -1.734375 0.910156 -1.636719 C 0.851562 -1.539062 0.820312 -1.382812 0.816406 -1.167969 Z "/>
</g>
<g id="glyph-1-3">
<path d="M 2.585938 -0.0390625 L 1.679688 0.015625 L 1.652344 -0.0117188 L 1.652344 -0.261719 L 1.640625 -0.261719 C 1.597656 -0.222656 1.554688 -0.183594 1.515625 -0.144531 C 1.472656 -0.109375 1.425781 -0.0742188 1.367188 -0.0429688 C 1.304688 -0.0078125 1.242188 0.015625 1.183594 0.03125 C 1.128906 0.046875 1.042969 0.0585938 0.933594 0.0585938 C 0.742188 0.0585938 0.597656 0 0.496094 -0.117188 C 0.394531 -0.230469 0.34375 -0.394531 0.34375 -0.605469 L 0.34375 -1.457031 C 0.34375 -1.507812 0.332031 -1.546875 0.3125 -1.578125 C 0.292969 -1.609375 0.269531 -1.636719 0.238281 -1.660156 C 0.210938 -1.679688 0.179688 -1.695312 0.140625 -1.703125 C 0.0976562 -1.710938 0.0625 -1.714844 0.03125 -1.71875 L 0.03125 -1.855469 L 0.949219 -1.90625 L 0.96875 -1.878906 L 0.96875 -0.617188 C 0.96875 -0.484375 0.992188 -0.390625 1.042969 -0.328125 C 1.09375 -0.265625 1.164062 -0.234375 1.25 -0.234375 C 1.339844 -0.234375 1.421875 -0.257812 1.492188 -0.304688 C 1.5625 -0.351562 1.617188 -0.402344 1.648438 -0.453125 L 1.648438 -1.476562 C 1.648438 -1.519531 1.640625 -1.558594 1.625 -1.59375 C 1.605469 -1.628906 1.582031 -1.65625 1.550781 -1.675781 C 1.527344 -1.691406 1.496094 -1.703125 1.453125 -1.707031 C 1.410156 -1.710938 1.367188 -1.714844 1.324219 -1.71875 L 1.324219 -1.855469 L 2.246094 -1.90625 L 2.273438 -1.878906 L 2.273438 -0.410156 C 2.273438 -0.367188 2.285156 -0.332031 2.300781 -0.300781 C 2.320312 -0.269531 2.34375 -0.242188 2.378906 -0.21875 C 2.402344 -0.207031 2.433594 -0.195312 2.472656 -0.1875 C 2.511719 -0.183594 2.546875 -0.179688 2.585938 -0.179688 Z "/>
</g>
<g id="glyph-1-4">
<path d="M 2.273438 0 L 1.089844 0 L 1.089844 -0.136719 C 1.152344 -0.140625 1.203125 -0.148438 1.246094 -0.15625 C 1.285156 -0.160156 1.308594 -0.175781 1.308594 -0.199219 C 1.308594 -0.207031 1.300781 -0.222656 1.292969 -0.246094 C 1.28125 -0.265625 1.265625 -0.289062 1.25 -0.316406 C 1.226562 -0.355469 1.183594 -0.417969 1.125 -0.503906 C 1.066406 -0.589844 1.011719 -0.667969 0.960938 -0.738281 C 0.886719 -0.65625 0.824219 -0.582031 0.773438 -0.519531 C 0.726562 -0.460938 0.671875 -0.394531 0.617188 -0.324219 C 0.601562 -0.300781 0.585938 -0.28125 0.578125 -0.261719 C 0.570312 -0.242188 0.566406 -0.230469 0.566406 -0.226562 C 0.566406 -0.199219 0.589844 -0.175781 0.628906 -0.160156 C 0.671875 -0.144531 0.71875 -0.136719 0.777344 -0.136719 L 0.777344 0 L 0.00390625 0 L 0.00390625 -0.136719 C 0.109375 -0.160156 0.191406 -0.195312 0.25 -0.242188 C 0.3125 -0.289062 0.355469 -0.324219 0.375 -0.347656 C 0.46875 -0.449219 0.546875 -0.53125 0.609375 -0.597656 C 0.675781 -0.660156 0.761719 -0.753906 0.867188 -0.871094 C 0.796875 -0.972656 0.710938 -1.09375 0.605469 -1.238281 C 0.503906 -1.382812 0.417969 -1.5 0.351562 -1.589844 C 0.316406 -1.636719 0.273438 -1.671875 0.226562 -1.695312 C 0.175781 -1.722656 0.109375 -1.738281 0.03125 -1.746094 L 0.03125 -1.882812 L 1.191406 -1.882812 L 1.191406 -1.746094 C 1.152344 -1.746094 1.109375 -1.742188 1.070312 -1.738281 C 1.027344 -1.734375 1.007812 -1.722656 1.007812 -1.710938 C 1.007812 -1.699219 1.011719 -1.6875 1.019531 -1.671875 C 1.023438 -1.65625 1.03125 -1.640625 1.042969 -1.625 C 1.066406 -1.585938 1.105469 -1.527344 1.15625 -1.445312 C 1.207031 -1.367188 1.265625 -1.285156 1.324219 -1.199219 C 1.378906 -1.269531 1.429688 -1.328125 1.464844 -1.371094 C 1.503906 -1.414062 1.554688 -1.476562 1.617188 -1.558594 C 1.636719 -1.589844 1.652344 -1.613281 1.660156 -1.628906 C 1.664062 -1.644531 1.667969 -1.652344 1.667969 -1.65625 C 1.667969 -1.675781 1.652344 -1.695312 1.625 -1.714844 C 1.597656 -1.730469 1.546875 -1.742188 1.464844 -1.746094 L 1.464844 -1.882812 L 2.222656 -1.882812 L 2.222656 -1.746094 C 2.160156 -1.734375 2.101562 -1.714844 2.042969 -1.683594 C 1.984375 -1.652344 1.921875 -1.601562 1.859375 -1.535156 C 1.761719 -1.433594 1.6875 -1.355469 1.644531 -1.308594 C 1.597656 -1.261719 1.523438 -1.183594 1.421875 -1.074219 C 1.480469 -0.992188 1.5625 -0.871094 1.671875 -0.714844 C 1.785156 -0.558594 1.878906 -0.425781 1.957031 -0.316406 C 1.992188 -0.269531 2.03125 -0.230469 2.074219 -0.199219 C 2.117188 -0.167969 2.183594 -0.148438 2.273438 -0.136719 Z "/>
</g>
<g id="glyph-1-5">
<path d="M 1.308594 0 L 0.109375 0 L 0.109375 -0.136719 C 0.144531 -0.140625 0.175781 -0.144531 0.207031 -0.148438 C 0.238281 -0.152344 0.265625 -0.160156 0.289062 -0.167969 C 0.328125 -0.183594 0.359375 -0.203125 0.375 -0.234375 C 0.390625 -0.261719 0.398438 -0.296875 0.398438 -0.34375 L 0.398438 -1.449219 C 0.398438 -1.496094 0.390625 -1.535156 0.367188 -1.566406 C 0.347656 -1.601562 0.324219 -1.628906 0.292969 -1.648438 C 0.269531 -1.664062 0.234375 -1.679688 0.1875 -1.691406 C 0.144531 -1.707031 0.101562 -1.714844 0.0625 -1.71875 L 0.0625 -1.855469 L 0.992188 -1.90625 L 1.023438 -1.878906 L 1.023438 -0.371094 C 1.023438 -0.324219 1.03125 -0.289062 1.050781 -0.257812 C 1.070312 -0.226562 1.097656 -0.203125 1.132812 -0.1875 C 1.15625 -0.175781 1.183594 -0.167969 1.214844 -0.15625 C 1.246094 -0.148438 1.277344 -0.140625 1.308594 -0.136719 L 1.308594 0 M 1.03125 -2.589844 C 1.03125 -2.492188 0.996094 -2.414062 0.921875 -2.34375 C 0.847656 -2.277344 0.761719 -2.242188 0.660156 -2.242188 C 0.554688 -2.242188 0.46875 -2.277344 0.394531 -2.34375 C 0.320312 -2.414062 0.28125 -2.492188 0.28125 -2.589844 C 0.28125 -2.6875 0.320312 -2.769531 0.394531 -2.835938 C 0.46875 -2.90625 0.554688 -2.941406 0.660156 -2.941406 C 0.761719 -2.941406 0.847656 -2.90625 0.921875 -2.835938 C 0.996094 -2.769531 1.03125 -2.6875 1.03125 -2.589844 Z "/>
</g>
<g id="glyph-1-6">
<path d="M 2.152344 -0.453125 C 2.105469 -0.382812 2.054688 -0.3125 1.992188 -0.25 C 1.929688 -0.1875 1.855469 -0.132812 1.777344 -0.0859375 C 1.691406 -0.0390625 1.605469 0 1.519531 0.0234375 C 1.433594 0.046875 1.332031 0.0625 1.222656 0.0625 C 1.035156 0.0625 0.871094 0.0351562 0.734375 -0.0195312 C 0.601562 -0.0703125 0.488281 -0.144531 0.398438 -0.234375 C 0.308594 -0.324219 0.242188 -0.429688 0.199219 -0.550781 C 0.15625 -0.675781 0.136719 -0.804688 0.136719 -0.949219 C 0.136719 -1.078125 0.160156 -1.203125 0.207031 -1.320312 C 0.253906 -1.4375 0.320312 -1.542969 0.410156 -1.636719 C 0.496094 -1.726562 0.601562 -1.800781 0.734375 -1.855469 C 0.863281 -1.910156 1.011719 -1.9375 1.171875 -1.9375 C 1.351562 -1.9375 1.496094 -1.917969 1.609375 -1.875 C 1.722656 -1.832031 1.820312 -1.773438 1.894531 -1.695312 C 1.964844 -1.625 2.019531 -1.539062 2.050781 -1.441406 C 2.082031 -1.34375 2.101562 -1.238281 2.101562 -1.132812 L 2.101562 -1.007812 L 0.816406 -1.007812 C 0.816406 -0.75 0.867188 -0.550781 0.964844 -0.414062 C 1.066406 -0.28125 1.226562 -0.210938 1.441406 -0.210938 C 1.5625 -0.210938 1.667969 -0.246094 1.765625 -0.308594 C 1.859375 -0.375 1.941406 -0.457031 2.007812 -0.558594 L 2.152344 -0.453125 M 1.425781 -1.175781 C 1.425781 -1.25 1.421875 -1.328125 1.414062 -1.410156 C 1.40625 -1.488281 1.394531 -1.554688 1.375 -1.605469 C 1.351562 -1.664062 1.324219 -1.710938 1.285156 -1.738281 C 1.25 -1.769531 1.203125 -1.785156 1.144531 -1.785156 C 1.046875 -1.785156 0.96875 -1.734375 0.910156 -1.636719 C 0.851562 -1.539062 0.820312 -1.382812 0.816406 -1.167969 L 1.425781 -1.175781 M 1.566406 -2.164062 L 1.484375 -2.089844 C 1.273438 -2.21875 1.117188 -2.308594 1.007812 -2.367188 C 0.902344 -2.421875 0.8125 -2.476562 0.734375 -2.527344 C 0.675781 -2.566406 0.632812 -2.605469 0.609375 -2.636719 C 0.582031 -2.664062 0.570312 -2.710938 0.570312 -2.773438 C 0.570312 -2.816406 0.597656 -2.859375 0.644531 -2.890625 C 0.695312 -2.921875 0.75 -2.941406 0.808594 -2.941406 C 0.886719 -2.941406 0.949219 -2.929688 0.992188 -2.90625 C 1.039062 -2.882812 1.089844 -2.828125 1.148438 -2.742188 C 1.191406 -2.679688 1.246094 -2.601562 1.320312 -2.5 C 1.390625 -2.398438 1.472656 -2.289062 1.566406 -2.164062 Z "/>
</g>
<g id="glyph-1-7">
<path d="M 3.882812 0 L 2.753906 0 L 2.753906 -0.136719 C 2.78125 -0.140625 2.808594 -0.144531 2.839844 -0.148438 C 2.871094 -0.152344 2.894531 -0.15625 2.914062 -0.167969 C 2.941406 -0.179688 2.960938 -0.199219 2.96875 -0.230469 C 2.976562 -0.261719 2.980469 -0.296875 2.980469 -0.34375 L 2.980469 -1.234375 C 2.980469 -1.363281 2.957031 -1.460938 2.910156 -1.527344 C 2.863281 -1.589844 2.796875 -1.625 2.710938 -1.625 C 2.65625 -1.625 2.609375 -1.613281 2.566406 -1.597656 C 2.523438 -1.582031 2.484375 -1.558594 2.449219 -1.535156 C 2.410156 -1.507812 2.382812 -1.480469 2.363281 -1.453125 C 2.34375 -1.429688 2.324219 -1.40625 2.3125 -1.386719 L 2.3125 -0.367188 C 2.3125 -0.320312 2.316406 -0.285156 2.328125 -0.253906 C 2.335938 -0.226562 2.359375 -0.203125 2.386719 -0.1875 C 2.40625 -0.175781 2.429688 -0.167969 2.457031 -0.15625 C 2.480469 -0.148438 2.507812 -0.140625 2.539062 -0.136719 L 2.539062 0 L 1.457031 0 L 1.457031 -0.136719 C 1.480469 -0.140625 1.511719 -0.144531 1.546875 -0.148438 C 1.578125 -0.152344 1.605469 -0.160156 1.621094 -0.167969 C 1.648438 -0.179688 1.664062 -0.203125 1.671875 -0.226562 C 1.679688 -0.253906 1.683594 -0.292969 1.683594 -0.34375 L 1.683594 -1.234375 C 1.683594 -1.363281 1.660156 -1.460938 1.613281 -1.527344 C 1.570312 -1.589844 1.503906 -1.625 1.414062 -1.625 C 1.363281 -1.625 1.3125 -1.613281 1.269531 -1.597656 C 1.226562 -1.582031 1.1875 -1.558594 1.152344 -1.535156 C 1.117188 -1.507812 1.085938 -1.480469 1.066406 -1.453125 C 1.046875 -1.429688 1.03125 -1.40625 1.015625 -1.386719 L 1.015625 -0.367188 C 1.015625 -0.320312 1.023438 -0.285156 1.03125 -0.257812 C 1.042969 -0.226562 1.066406 -0.203125 1.09375 -0.1875 C 1.113281 -0.175781 1.136719 -0.167969 1.164062 -0.15625 C 1.1875 -0.148438 1.214844 -0.140625 1.246094 -0.136719 L 1.246094 0 L 0.109375 0 L 0.109375 -0.136719 C 0.140625 -0.140625 0.171875 -0.144531 0.207031 -0.148438 C 0.238281 -0.152344 0.265625 -0.160156 0.285156 -0.167969 C 0.328125 -0.183594 0.355469 -0.203125 0.371094 -0.234375 C 0.386719 -0.261719 0.394531 -0.296875 0.394531 -0.34375 L 0.394531 -1.449219 C 0.394531 -1.492188 0.382812 -1.53125 0.359375 -1.570312 C 0.339844 -1.609375 0.3125 -1.636719 0.28125 -1.660156 C 0.261719 -1.675781 0.230469 -1.6875 0.195312 -1.699219 C 0.160156 -1.707031 0.125 -1.714844 0.0820312 -1.71875 L 0.0820312 -1.855469 L 0.988281 -1.90625 L 1.015625 -1.878906 L 1.015625 -1.609375 L 1.023438 -1.609375 C 1.058594 -1.640625 1.101562 -1.679688 1.148438 -1.722656 C 1.199219 -1.765625 1.246094 -1.800781 1.289062 -1.828125 C 1.335938 -1.859375 1.394531 -1.882812 1.46875 -1.90625 C 1.542969 -1.925781 1.621094 -1.933594 1.710938 -1.933594 C 1.851562 -1.933594 1.972656 -1.902344 2.070312 -1.839844 C 2.167969 -1.777344 2.238281 -1.695312 2.277344 -1.589844 L 2.292969 -1.589844 C 2.332031 -1.625 2.375 -1.664062 2.429688 -1.710938 C 2.480469 -1.757812 2.53125 -1.796875 2.574219 -1.824219 C 2.625 -1.855469 2.6875 -1.882812 2.765625 -1.902344 C 2.839844 -1.925781 2.921875 -1.933594 3.011719 -1.933594 C 3.203125 -1.933594 3.347656 -1.878906 3.453125 -1.765625 C 3.554688 -1.652344 3.605469 -1.492188 3.605469 -1.285156 L 3.605469 -0.363281 C 3.605469 -0.316406 3.613281 -0.277344 3.628906 -0.25 C 3.640625 -0.222656 3.667969 -0.199219 3.703125 -0.183594 C 3.722656 -0.175781 3.75 -0.167969 3.777344 -0.15625 C 3.808594 -0.148438 3.84375 -0.140625 3.882812 -0.136719 Z "/>
</g>
<g id="glyph-1-8">
<path d="M 1.269531 0 L 0.0742188 0 L 0.0742188 -0.136719 C 0.105469 -0.140625 0.140625 -0.144531 0.171875 -0.148438 C 0.203125 -0.152344 0.230469 -0.160156 0.253906 -0.167969 C 0.292969 -0.183594 0.324219 -0.203125 0.335938 -0.234375 C 0.351562 -0.261719 0.359375 -0.296875 0.359375 -0.34375 L 0.359375 -2.449219 C 0.359375 -2.496094 0.347656 -2.542969 0.328125 -2.582031 C 0.308594 -2.625 0.285156 -2.65625 0.25 -2.675781 C 0.226562 -2.695312 0.1875 -2.710938 0.136719 -2.726562 C 0.0859375 -2.742188 0.0390625 -2.75 0 -2.75 L 0 -2.890625 L 0.957031 -2.941406 L 0.984375 -2.910156 L 0.984375 -0.371094 C 0.984375 -0.324219 0.992188 -0.285156 1.011719 -0.257812 C 1.027344 -0.226562 1.054688 -0.203125 1.089844 -0.1875 C 1.117188 -0.175781 1.144531 -0.167969 1.171875 -0.15625 C 1.199219 -0.148438 1.230469 -0.140625 1.269531 -0.136719 Z "/>
</g>
<g id="glyph-1-9">
<path d="M 2.050781 -1.660156 C 2.144531 -1.574219 2.214844 -1.46875 2.265625 -1.347656 C 2.3125 -1.226562 2.335938 -1.09375 2.335938 -0.953125 C 2.335938 -0.8125 2.3125 -0.679688 2.265625 -0.554688 C 2.214844 -0.429688 2.144531 -0.320312 2.050781 -0.234375 C 1.949219 -0.136719 1.832031 -0.0664062 1.691406 -0.015625 C 1.554688 0.0351562 1.394531 0.0625 1.21875 0.0625 C 1.0625 0.0625 0.921875 0.0390625 0.789062 -0.00390625 C 0.660156 -0.0507812 0.546875 -0.117188 0.445312 -0.207031 C 0.351562 -0.289062 0.273438 -0.394531 0.21875 -0.519531 C 0.164062 -0.644531 0.136719 -0.785156 0.136719 -0.9375 C 0.136719 -1.089844 0.160156 -1.226562 0.207031 -1.34375 C 0.257812 -1.460938 0.328125 -1.566406 0.425781 -1.660156 C 0.519531 -1.75 0.636719 -1.816406 0.773438 -1.867188 C 0.910156 -1.914062 1.066406 -1.9375 1.234375 -1.9375 C 1.410156 -1.9375 1.566406 -1.914062 1.703125 -1.867188 C 1.835938 -1.816406 1.953125 -1.75 2.050781 -1.660156 M 1.5625 -0.34375 C 1.589844 -0.414062 1.613281 -0.5 1.625 -0.601562 C 1.636719 -0.703125 1.644531 -0.820312 1.644531 -0.957031 C 1.644531 -1.042969 1.636719 -1.144531 1.625 -1.257812 C 1.613281 -1.371094 1.59375 -1.464844 1.570312 -1.527344 C 1.539062 -1.609375 1.496094 -1.671875 1.441406 -1.714844 C 1.386719 -1.761719 1.320312 -1.785156 1.238281 -1.785156 C 1.148438 -1.785156 1.078125 -1.761719 1.023438 -1.710938 C 0.96875 -1.660156 0.925781 -1.597656 0.898438 -1.519531 C 0.871094 -1.445312 0.851562 -1.363281 0.84375 -1.265625 C 0.832031 -1.167969 0.828125 -1.066406 0.828125 -0.960938 C 0.828125 -0.824219 0.832031 -0.710938 0.839844 -0.621094 C 0.851562 -0.53125 0.871094 -0.4375 0.90625 -0.347656 C 0.933594 -0.269531 0.976562 -0.207031 1.03125 -0.160156 C 1.085938 -0.117188 1.15625 -0.09375 1.238281 -0.09375 C 1.3125 -0.09375 1.378906 -0.113281 1.433594 -0.15625 C 1.488281 -0.199219 1.53125 -0.261719 1.5625 -0.34375 Z "/>
</g>
<g id="glyph-1-10">
<path d="M 2.5625 -0.0390625 L 1.628906 0.015625 L 1.597656 -0.0117188 L 1.597656 -0.1875 L 1.585938 -0.191406 C 1.523438 -0.121094 1.441406 -0.0625 1.335938 -0.015625 C 1.230469 0.0351562 1.121094 0.0625 1.015625 0.0625 C 0.757812 0.0625 0.550781 -0.0351562 0.382812 -0.222656 C 0.21875 -0.414062 0.136719 -0.660156 0.136719 -0.960938 C 0.136719 -1.226562 0.226562 -1.457031 0.414062 -1.648438 C 0.597656 -1.839844 0.820312 -1.933594 1.085938 -1.933594 C 1.1875 -1.933594 1.285156 -1.921875 1.378906 -1.898438 C 1.46875 -1.875 1.539062 -1.847656 1.59375 -1.816406 L 1.59375 -2.4375 C 1.59375 -2.484375 1.585938 -2.527344 1.566406 -2.570312 C 1.546875 -2.613281 1.523438 -2.644531 1.492188 -2.667969 C 1.453125 -2.695312 1.402344 -2.714844 1.34375 -2.726562 C 1.285156 -2.738281 1.226562 -2.746094 1.167969 -2.75 L 1.167969 -2.890625 L 2.195312 -2.941406 L 2.222656 -2.910156 L 2.222656 -0.417969 C 2.222656 -0.371094 2.230469 -0.332031 2.246094 -0.296875 C 2.261719 -0.265625 2.285156 -0.238281 2.320312 -0.21875 C 2.347656 -0.207031 2.386719 -0.195312 2.4375 -0.191406 C 2.488281 -0.183594 2.53125 -0.179688 2.5625 -0.179688 L 2.5625 -0.0390625 M 1.59375 -0.378906 L 1.59375 -1.449219 C 1.585938 -1.480469 1.574219 -1.511719 1.558594 -1.546875 C 1.542969 -1.582031 1.519531 -1.617188 1.492188 -1.648438 C 1.46875 -1.675781 1.433594 -1.699219 1.390625 -1.71875 C 1.347656 -1.738281 1.300781 -1.75 1.25 -1.75 C 1.121094 -1.75 1.019531 -1.675781 0.9375 -1.535156 C 0.855469 -1.390625 0.816406 -1.191406 0.816406 -0.929688 C 0.816406 -0.824219 0.824219 -0.734375 0.839844 -0.652344 C 0.851562 -0.570312 0.878906 -0.496094 0.914062 -0.429688 C 0.953125 -0.363281 1 -0.308594 1.054688 -0.273438 C 1.113281 -0.234375 1.183594 -0.214844 1.265625 -0.214844 C 1.339844 -0.214844 1.40625 -0.230469 1.453125 -0.257812 C 1.503906 -0.289062 1.550781 -0.328125 1.59375 -0.378906 Z "/>
</g>
<g id="glyph-1-11">
<path d="M 3.226562 -2.546875 C 3.191406 -2.542969 3.140625 -2.535156 3.074219 -2.527344 C 3.007812 -2.515625 2.949219 -2.492188 2.894531 -2.453125 C 2.847656 -2.417969 2.816406 -2.359375 2.796875 -2.277344 C 2.777344 -2.191406 2.765625 -2.070312 2.765625 -1.910156 L 2.765625 0.015625 L 2.429688 0.015625 L 0.75 -2.066406 L 0.75 -0.804688 C 0.75 -0.644531 0.761719 -0.527344 0.78125 -0.445312 C 0.800781 -0.363281 0.835938 -0.304688 0.882812 -0.265625 C 0.917969 -0.238281 0.972656 -0.214844 1.046875 -0.191406 C 1.121094 -0.171875 1.179688 -0.15625 1.226562 -0.148438 L 1.226562 0 L 0.0664062 0 L 0.0664062 -0.148438 C 0.117188 -0.152344 0.171875 -0.160156 0.238281 -0.175781 C 0.300781 -0.191406 0.355469 -0.210938 0.398438 -0.242188 C 0.445312 -0.28125 0.480469 -0.335938 0.5 -0.410156 C 0.515625 -0.484375 0.527344 -0.609375 0.527344 -0.78125 L 0.527344 -2.058594 C 0.527344 -2.121094 0.515625 -2.183594 0.496094 -2.238281 C 0.476562 -2.292969 0.445312 -2.34375 0.40625 -2.382812 C 0.359375 -2.425781 0.308594 -2.460938 0.25 -2.484375 C 0.195312 -2.507812 0.128906 -2.527344 0.0546875 -2.542969 L 0.0546875 -2.695312 L 1.070312 -2.695312 L 2.542969 -0.871094 L 2.542969 -1.890625 C 2.542969 -2.054688 2.53125 -2.175781 2.511719 -2.253906 C 2.488281 -2.332031 2.453125 -2.390625 2.40625 -2.429688 C 2.371094 -2.457031 2.316406 -2.484375 2.246094 -2.503906 C 2.171875 -2.523438 2.113281 -2.539062 2.070312 -2.546875 L 2.070312 -2.695312 L 3.226562 -2.695312 Z "/>
</g>
<g id="glyph-1-12">
<path d="M 3.382812 -1.746094 C 3.324219 -1.738281 3.273438 -1.71875 3.222656 -1.6875 C 3.171875 -1.65625 3.132812 -1.601562 3.097656 -1.519531 C 3.007812 -1.304688 2.9375 -1.128906 2.882812 -0.996094 C 2.832031 -0.863281 2.757812 -0.671875 2.660156 -0.421875 C 2.640625 -0.371094 2.617188 -0.296875 2.585938 -0.207031 C 2.558594 -0.117188 2.535156 -0.0429688 2.519531 0.015625 L 2.148438 0.015625 L 1.671875 -1.277344 L 1.222656 0.015625 L 0.855469 0.015625 C 0.730469 -0.328125 0.628906 -0.597656 0.554688 -0.789062 C 0.480469 -0.976562 0.382812 -1.230469 0.261719 -1.542969 C 0.238281 -1.601562 0.199219 -1.648438 0.144531 -1.683594 C 0.0898438 -1.714844 0.03125 -1.738281 -0.0273438 -1.746094 L -0.0273438 -1.882812 L 1.140625 -1.882812 L 1.140625 -1.746094 C 1.097656 -1.742188 1.046875 -1.730469 0.984375 -1.714844 C 0.925781 -1.699219 0.894531 -1.675781 0.894531 -1.648438 C 0.894531 -1.636719 0.898438 -1.625 0.902344 -1.613281 C 0.902344 -1.605469 0.910156 -1.589844 0.917969 -1.5625 C 0.953125 -1.464844 1 -1.335938 1.058594 -1.179688 C 1.117188 -1.023438 1.1875 -0.839844 1.265625 -0.632812 L 1.6875 -1.882812 L 2.066406 -1.882812 L 2.542969 -0.59375 C 2.617188 -0.789062 2.675781 -0.941406 2.714844 -1.054688 C 2.753906 -1.164062 2.804688 -1.308594 2.863281 -1.488281 C 2.875 -1.511719 2.878906 -1.539062 2.882812 -1.558594 C 2.882812 -1.578125 2.882812 -1.59375 2.882812 -1.597656 C 2.882812 -1.621094 2.871094 -1.640625 2.847656 -1.660156 C 2.824219 -1.679688 2.796875 -1.695312 2.765625 -1.707031 C 2.734375 -1.714844 2.703125 -1.726562 2.675781 -1.730469 C 2.644531 -1.738281 2.621094 -1.742188 2.601562 -1.746094 L 2.601562 -1.882812 L 3.382812 -1.882812 Z "/>
</g>
<g id="glyph-1-13">
<path d="M 1.523438 -0.0859375 C 1.441406 -0.0507812 1.355469 -0.0195312 1.261719 0.0078125 C 1.171875 0.0351562 1.058594 0.0507812 0.925781 0.0507812 C 0.726562 0.0507812 0.582031 0.00390625 0.484375 -0.09375 C 0.390625 -0.1875 0.34375 -0.328125 0.34375 -0.503906 L 0.34375 -1.667969 L 0 -1.667969 L 0 -1.875 L 0.347656 -1.875 L 0.347656 -2.453125 L 0.964844 -2.453125 L 0.964844 -1.875 L 1.5 -1.875 L 1.5 -1.667969 L 0.96875 -1.667969 L 0.96875 -0.628906 C 0.96875 -0.480469 0.988281 -0.378906 1.03125 -0.316406 C 1.070312 -0.253906 1.144531 -0.222656 1.253906 -0.222656 C 1.285156 -0.222656 1.335938 -0.226562 1.394531 -0.230469 C 1.457031 -0.234375 1.5 -0.242188 1.523438 -0.246094 Z "/>
</g>
<g id="glyph-1-14">
<path d="M 2.617188 0 L 1.476562 0 L 1.476562 -0.136719 C 1.5 -0.140625 1.527344 -0.144531 1.5625 -0.148438 C 1.597656 -0.152344 1.625 -0.160156 1.640625 -0.167969 C 1.667969 -0.179688 1.6875 -0.203125 1.699219 -0.226562 C 1.710938 -0.253906 1.714844 -0.292969 1.714844 -0.34375 L 1.714844 -1.234375 C 1.714844 -1.363281 1.691406 -1.460938 1.644531 -1.527344 C 1.597656 -1.589844 1.527344 -1.625 1.433594 -1.625 C 1.382812 -1.625 1.335938 -1.617188 1.292969 -1.601562 C 1.246094 -1.585938 1.203125 -1.5625 1.164062 -1.535156 C 1.125 -1.507812 1.097656 -1.484375 1.074219 -1.457031 C 1.050781 -1.429688 1.03125 -1.40625 1.019531 -1.386719 L 1.019531 -0.367188 C 1.019531 -0.320312 1.023438 -0.285156 1.035156 -0.253906 C 1.050781 -0.226562 1.070312 -0.203125 1.097656 -0.1875 C 1.121094 -0.175781 1.144531 -0.167969 1.175781 -0.15625 C 1.207031 -0.148438 1.234375 -0.140625 1.265625 -0.136719 L 1.265625 0 L 0.109375 0 L 0.109375 -0.136719 C 0.140625 -0.140625 0.171875 -0.144531 0.207031 -0.148438 C 0.238281 -0.152344 0.265625 -0.160156 0.289062 -0.167969 C 0.328125 -0.179688 0.355469 -0.203125 0.371094 -0.230469 C 0.386719 -0.261719 0.394531 -0.296875 0.394531 -0.34375 L 0.394531 -1.449219 C 0.394531 -1.488281 0.386719 -1.527344 0.363281 -1.566406 C 0.34375 -1.605469 0.316406 -1.636719 0.285156 -1.660156 C 0.261719 -1.675781 0.234375 -1.6875 0.199219 -1.699219 C 0.164062 -1.707031 0.125 -1.714844 0.0820312 -1.71875 L 0.0820312 -1.855469 L 0.988281 -1.90625 L 1.019531 -1.878906 L 1.019531 -1.601562 L 1.027344 -1.601562 C 1.0625 -1.632812 1.105469 -1.671875 1.15625 -1.714844 C 1.207031 -1.761719 1.253906 -1.796875 1.296875 -1.824219 C 1.34375 -1.855469 1.402344 -1.882812 1.480469 -1.902344 C 1.554688 -1.925781 1.636719 -1.933594 1.722656 -1.933594 C 1.929688 -1.933594 2.082031 -1.875 2.1875 -1.757812 C 2.289062 -1.640625 2.339844 -1.488281 2.339844 -1.292969 L 2.339844 -0.363281 C 2.339844 -0.316406 2.347656 -0.277344 2.363281 -0.25 C 2.375 -0.222656 2.402344 -0.199219 2.441406 -0.183594 C 2.460938 -0.175781 2.484375 -0.167969 2.515625 -0.15625 C 2.546875 -0.148438 2.578125 -0.140625 2.617188 -0.136719 Z "/>
</g>
</g>
</defs>
<g fill="rgb(29.019608%, 9.803922%, 25.882353%)" fill-opacity="1">
<use xlink:href="#glyph-0-0" x="30" y="23.56543"/>
</g>
<g fill="rgb(29.019608%, 9.803922%, 25.882353%)" fill-opacity="1">
<use xlink:href="#glyph-1-0" x="34" y="23.56543"/>
<use xlink:href="#glyph-1-1" x="35" y="23.56543"/>
<use xlink:href="#glyph-1-2" x="38" y="23.56543"/>
<use xlink:href="#glyph-1-3" x="40" y="23.56543"/>
<use xlink:href="#glyph-1-4" x="43" y="23.56543"/>
<use xlink:href="#glyph-1-5" x="45" y="23.56543"/>
<use xlink:href="#glyph-1-6" x="46" y="23.56543"/>
<use xlink:href="#glyph-1-7" x="48" y="23.56543"/>
<use xlink:href="#glyph-1-2" x="52" y="23.56543"/>
<use xlink:href="#glyph-1-0" x="54" y="23.56543"/>
<use xlink:href="#glyph-1-8" x="55" y="23.56543"/>
<use xlink:href="#glyph-1-9" x="56" y="23.56543"/>
<use xlink:href="#glyph-1-5" x="58" y="23.56543"/>
<use xlink:href="#glyph-1-0" x="59" y="23.56543"/>
<use xlink:href="#glyph-1-10" x="60" y="23.56543"/>
<use xlink:href="#glyph-1-2" x="63" y="23.56543"/>
<use xlink:href="#glyph-1-0" x="65" y="23.56543"/>
<use xlink:href="#glyph-1-11" x="66" y="23.56543"/>
<use xlink:href="#glyph-1-2" x="69" y="23.56543"/>
<use xlink:href="#glyph-1-12" x="71" y="23.56543"/>
<use xlink:href="#glyph-1-13" x="74" y="23.56543"/>
<use xlink:href="#glyph-1-9" x="76" y="23.56543"/>
<use xlink:href="#glyph-1-14" x="78" y="23.56543"/>
</g>
</svg>
