<?xml version="1.0" encoding="UTF-8"?>
<svg xmlns="http://www.w3.org/2000/svg" xmlns:xlink="http://www.w3.org/1999/xlink" width="1080" height="1920" viewBox="0 0 1080 1920">
<defs>
<g>
<g id="glyph-0-0">
<path d="M 5.386719 0 L 3.519531 0 L 3.519531 -0.210938 C 3.585938 -0.214844 3.671875 -0.222656 3.777344 -0.234375 C 3.886719 -0.246094 3.957031 -0.261719 4 -0.285156 C 4.058594 -0.320312 4.105469 -0.363281 4.132812 -0.414062 C 4.164062 -0.460938 4.175781 -0.523438 4.175781 -0.597656 L 4.175781 -3.675781 L 4.132812 -3.675781 L 2.6875 -0.0703125 L 2.539062 -0.0703125 L 1.164062 -3.75 L 1.125 -3.75 L 1.125 -1.222656 C 1.125 -0.980469 1.140625 -0.792969 1.171875 -0.664062 C 1.203125 -0.539062 1.25 -0.445312 1.3125 -0.390625 C 1.355469 -0.347656 1.445312 -0.308594 1.585938 -0.273438 C 1.722656 -0.234375 1.8125 -0.214844 1.851562 -0.210938 L 1.851562 0 L 0.144531 0 L 0.144531 -0.210938 C 0.234375 -0.21875 0.328125 -0.234375 0.425781 -0.257812 C 0.523438 -0.277344 0.601562 -0.3125 0.652344 -0.355469 C 0.722656 -0.410156 0.769531 -0.496094 0.796875 -0.613281 C 0.824219 -0.726562 0.835938 -0.921875 0.835938 -1.191406 L 0.835938 -3.355469 C 0.835938 -3.480469 0.820312 -3.585938 0.789062 -3.664062 C 0.761719 -3.742188 0.71875 -3.808594 0.664062 -3.859375 C 0.601562 -3.910156 0.523438 -3.953125 0.4375 -3.976562 C 0.347656 -4.003906 0.257812 -4.019531 0.171875 -4.023438 L 0.171875 -4.234375 L 1.613281 -4.234375 L 2.828125 -1.054688 L 3.863281 -3.714844 C 3.898438 -3.8125 3.933594 -3.914062 3.957031 -4.019531 C 3.984375 -4.125 4 -4.199219 4.003906 -4.234375 L 5.382812 -4.234375 L 5.382812 -4.023438 C 5.328125 -4.019531 5.253906 -4.011719 5.167969 -3.996094 C 5.082031 -3.980469 5.019531 -3.964844 4.980469 -3.949219 C 4.914062 -3.925781 4.867188 -3.886719 4.84375 -3.832031 C 4.820312 -3.777344 4.808594 -3.714844 4.808594 -3.648438 L 4.808594 -0.597656 C 4.808594 -0.527344 4.820312 -0.46875 4.84375 -0.421875 C 4.867188 -0.371094 4.914062 -0.332031 4.980469 -0.296875 C 5.015625 -0.277344 5.078125 -0.257812 5.171875 -0.238281 C 5.261719 -0.222656 5.335938 -0.214844 5.386719 -0.210938 Z "/>
</g>
<g id="glyph-0-1">
<path d="M 3 -0.0546875 C 2.90625 -0.0195312 2.824219 0.0078125 2.753906 0.0273438 C 2.683594 0.0507812 2.605469 0.0585938 2.515625 0.0585938 C 2.359375 0.0585938 2.234375 0.0234375 2.144531 -0.0507812 C 2.050781 -0.121094 1.992188 -0.226562 1.964844 -0.367188 L 1.949219 -0.367188 C 1.820312 -0.222656 1.679688 -0.113281 1.53125 -0.0390625 C 1.382812 0.0351562 1.207031 0.0742188 0.996094 0.0742188 C 0.777344 0.0742188 0.59375 0.0078125 0.453125 -0.128906 C 0.308594 -0.261719 0.238281 -0.441406 0.238281 -0.660156 C 0.238281 -0.773438 0.253906 -0.875 0.285156 -0.964844 C 0.316406 -1.054688 0.367188 -1.132812 0.429688 -1.207031 C 0.480469 -1.265625 0.546875 -1.316406 0.625 -1.363281 C 0.707031 -1.410156 0.785156 -1.449219 0.855469 -1.476562 C 0.945312 -1.511719 1.128906 -1.574219 1.402344 -1.664062 C 1.675781 -1.757812 1.859375 -1.828125 1.953125 -1.878906 L 1.953125 -2.175781 C 1.953125 -2.199219 1.949219 -2.25 1.9375 -2.324219 C 1.925781 -2.398438 1.902344 -2.46875 1.867188 -2.53125 C 1.828125 -2.605469 1.773438 -2.671875 1.699219 -2.726562 C 1.625 -2.78125 1.523438 -2.808594 1.390625 -2.808594 C 1.300781 -2.808594 1.214844 -2.792969 1.136719 -2.761719 C 1.058594 -2.730469 1 -2.699219 0.96875 -2.664062 C 0.96875 -2.625 0.980469 -2.566406 1 -2.488281 C 1.015625 -2.410156 1.027344 -2.339844 1.027344 -2.273438 C 1.027344 -2.203125 0.996094 -2.140625 0.933594 -2.082031 C 0.871094 -2.023438 0.78125 -1.996094 0.671875 -1.996094 C 0.570312 -1.996094 0.5 -2.03125 0.453125 -2.101562 C 0.40625 -2.171875 0.382812 -2.25 0.382812 -2.339844 C 0.382812 -2.429688 0.414062 -2.519531 0.480469 -2.601562 C 0.542969 -2.683594 0.628906 -2.761719 0.730469 -2.824219 C 0.820312 -2.882812 0.929688 -2.929688 1.054688 -2.96875 C 1.183594 -3.007812 1.308594 -3.027344 1.429688 -3.027344 C 1.597656 -3.027344 1.742188 -3.015625 1.867188 -2.992188 C 1.992188 -2.96875 2.105469 -2.917969 2.203125 -2.84375 C 2.304688 -2.769531 2.382812 -2.671875 2.4375 -2.542969 C 2.488281 -2.417969 2.515625 -2.253906 2.515625 -2.054688 C 2.515625 -1.769531 2.511719 -1.519531 2.507812 -1.300781 C 2.5 -1.078125 2.496094 -0.839844 2.496094 -0.578125 C 2.496094 -0.5 2.511719 -0.441406 2.539062 -0.394531 C 2.566406 -0.347656 2.605469 -0.308594 2.660156 -0.277344 C 2.691406 -0.257812 2.738281 -0.25 2.804688 -0.246094 C 2.867188 -0.246094 2.933594 -0.246094 3 -0.246094 L 3 -0.0546875 M 1.960938 -1.628906 C 1.792969 -1.578125 1.644531 -1.53125 1.515625 -1.484375 C 1.386719 -1.433594 1.269531 -1.375 1.160156 -1.304688 C 1.0625 -1.234375 0.984375 -1.15625 0.925781 -1.0625 C 0.867188 -0.96875 0.839844 -0.859375 0.839844 -0.730469 C 0.839844 -0.566406 0.882812 -0.445312 0.96875 -0.367188 C 1.054688 -0.289062 1.164062 -0.25 1.296875 -0.25 C 1.4375 -0.25 1.5625 -0.285156 1.671875 -0.355469 C 1.777344 -0.421875 1.867188 -0.503906 1.941406 -0.597656 Z "/>
</g>
<g id="glyph-0-2">
<path d="M 1.640625 0 L 0.222656 0 L 0.222656 -0.195312 C 0.265625 -0.199219 0.3125 -0.203125 0.363281 -0.207031 C 0.410156 -0.210938 0.453125 -0.222656 0.488281 -0.234375 C 0.546875 -0.25 0.585938 -0.28125 0.613281 -0.328125 C 0.640625 -0.371094 0.652344 -0.429688 0.652344 -0.5 L 0.652344 -2.316406 C 0.652344 -2.378906 0.640625 -2.4375 0.609375 -2.488281 C 0.582031 -2.542969 0.542969 -2.585938 0.488281 -2.621094 C 0.453125 -2.648438 0.398438 -2.667969 0.324219 -2.683594 C 0.253906 -2.699219 0.1875 -2.710938 0.128906 -2.714844 L 0.128906 -2.914062 L 1.167969 -2.976562 L 1.207031 -2.9375 L 1.207031 -0.535156 C 1.207031 -0.46875 1.222656 -0.410156 1.25 -0.363281 C 1.273438 -0.316406 1.316406 -0.285156 1.375 -0.261719 C 1.417969 -0.246094 1.460938 -0.230469 1.5 -0.21875 C 1.542969 -0.207031 1.589844 -0.199219 1.640625 -0.195312 L 1.640625 0 M 1.269531 -4.136719 C 1.269531 -4.023438 1.230469 -3.925781 1.15625 -3.839844 C 1.082031 -3.757812 0.988281 -3.714844 0.878906 -3.714844 C 0.777344 -3.714844 0.691406 -3.753906 0.617188 -3.835938 C 0.542969 -3.917969 0.503906 -4.007812 0.503906 -4.113281 C 0.503906 -4.222656 0.542969 -4.316406 0.617188 -4.398438 C 0.691406 -4.480469 0.777344 -4.519531 0.878906 -4.519531 C 0.992188 -4.519531 1.085938 -4.480469 1.160156 -4.40625 C 1.230469 -4.328125 1.269531 -4.238281 1.269531 -4.136719 Z "/>
</g>
<g id="glyph-0-3">
<path d="M 2.15625 -1.441406 C 2.238281 -1.371094 2.300781 -1.285156 2.34375 -1.195312 C 2.390625 -1.101562 2.410156 -0.984375 2.410156 -0.851562 C 2.410156 -0.578125 2.308594 -0.355469 2.105469 -0.183594 C 1.902344 -0.0078125 1.636719 0.078125 1.3125 0.078125 C 1.140625 0.078125 0.984375 0.046875 0.839844 -0.015625 C 0.695312 -0.078125 0.59375 -0.132812 0.53125 -0.183594 L 0.472656 0.0078125 L 0.246094 0.0078125 L 0.21875 -1.015625 L 0.421875 -1.015625 C 0.441406 -0.9375 0.472656 -0.847656 0.523438 -0.742188 C 0.578125 -0.636719 0.640625 -0.542969 0.714844 -0.460938 C 0.789062 -0.371094 0.882812 -0.300781 0.992188 -0.238281 C 1.101562 -0.179688 1.222656 -0.148438 1.359375 -0.148438 C 1.546875 -0.148438 1.695312 -0.191406 1.800781 -0.28125 C 1.902344 -0.367188 1.953125 -0.492188 1.953125 -0.652344 C 1.953125 -0.738281 1.9375 -0.808594 1.90625 -0.871094 C 1.871094 -0.929688 1.824219 -0.984375 1.761719 -1.03125 C 1.695312 -1.074219 1.613281 -1.117188 1.519531 -1.152344 C 1.421875 -1.191406 1.316406 -1.226562 1.199219 -1.261719 C 1.105469 -1.289062 1.003906 -1.328125 0.886719 -1.378906 C 0.773438 -1.425781 0.675781 -1.484375 0.59375 -1.546875 C 0.507812 -1.617188 0.433594 -1.703125 0.378906 -1.804688 C 0.324219 -1.90625 0.296875 -2.027344 0.296875 -2.164062 C 0.296875 -2.402344 0.386719 -2.609375 0.5625 -2.773438 C 0.742188 -2.941406 0.984375 -3.027344 1.28125 -3.027344 C 1.398438 -3.027344 1.515625 -3.011719 1.636719 -2.980469 C 1.757812 -2.949219 1.855469 -2.914062 1.929688 -2.875 L 2 -3.027344 L 2.214844 -3.027344 L 2.257812 -2.082031 L 2.054688 -2.082031 C 2.011719 -2.292969 1.921875 -2.464844 1.78125 -2.597656 C 1.644531 -2.730469 1.476562 -2.796875 1.277344 -2.796875 C 1.113281 -2.796875 0.984375 -2.757812 0.890625 -2.675781 C 0.796875 -2.59375 0.75 -2.496094 0.75 -2.378906 C 0.75 -2.289062 0.765625 -2.214844 0.796875 -2.152344 C 0.828125 -2.09375 0.875 -2.042969 0.9375 -2.003906 C 0.996094 -1.960938 1.070312 -1.925781 1.164062 -1.890625 C 1.253906 -1.855469 1.363281 -1.816406 1.496094 -1.773438 C 1.628906 -1.730469 1.753906 -1.683594 1.871094 -1.625 C 1.984375 -1.570312 2.082031 -1.507812 2.15625 -1.441406 Z "/>
</g>
<g id="glyph-0-4">
<path d="M 1.238281 -0.34375 C 1.238281 -0.230469 1.199219 -0.136719 1.117188 -0.0585938 C 1.035156 0.0195312 0.941406 0.0585938 0.828125 0.0585938 C 0.71875 0.0585938 0.621094 0.0195312 0.542969 -0.0585938 C 0.460938 -0.136719 0.421875 -0.230469 0.421875 -0.34375 C 0.421875 -0.453125 0.460938 -0.550781 0.542969 -0.632812 C 0.621094 -0.710938 0.71875 -0.75 0.828125 -0.75 C 0.941406 -0.75 1.035156 -0.710938 1.117188 -0.632812 C 1.199219 -0.550781 1.238281 -0.453125 1.238281 -0.34375 Z "/>
</g>
</g>
</defs>
<g fill="rgb(75.294118%, 22.352941%, 16.862745%)" fill-opacity="1">
<use xlink:href="#glyph-0-0" x="30" y="25.603516"/>
<use xlink:href="#glyph-0-1" x="36" y="25.603516"/>
<use xlink:href="#glyph-0-2" x="39" y="25.603516"/>
<use xlink:href="#glyph-0-3" x="41" y="25.603516"/>
<use xlink:href="#glyph-0-4" x="44" y="25.603516"/>
<use xlink:href="#glyph-0-4" x="46" y="25.603516"/>
<use xlink:href="#glyph-0-4" x="48" y="25.603516"/>
</g>
</svg>
