<?xml version="1.0" encoding="UTF-8"?>
<svg xmlns="http://www.w3.org/2000/svg" xmlns:xlink="http://www.w3.org/1999/xlink" width="1080" height="1920" viewBox="0 0 1080 1920">
<defs>
<g>
<g id="glyph-0-0">
<path d="M 4.523438 -3.003906 C 4.660156 -2.847656 4.765625 -2.679688 4.832031 -2.496094 C 4.894531 -2.3125 4.929688 -2.101562 4.929688 -1.859375 C 4.929688 -1.28125 4.714844 -0.804688 4.289062 -0.429688 C 3.859375 -0.0546875 3.332031 0.132812 2.699219 0.132812 C 2.40625 0.132812 2.113281 0.0898438 1.820312 -0.00390625 C 1.53125 -0.09375 1.277344 -0.203125 1.066406 -0.332031 L 0.867188 0.00390625 L 0.496094 0.00390625 L 0.433594 -2.238281 L 0.808594 -2.238281 C 0.882812 -1.960938 0.972656 -1.710938 1.078125 -1.488281 C 1.179688 -1.265625 1.316406 -1.054688 1.484375 -0.863281 C 1.644531 -0.679688 1.832031 -0.535156 2.046875 -0.429688 C 2.257812 -0.320312 2.507812 -0.265625 2.789062 -0.265625 C 3.003906 -0.265625 3.1875 -0.296875 3.34375 -0.351562 C 3.503906 -0.40625 3.632812 -0.484375 3.730469 -0.585938 C 3.828125 -0.6875 3.902344 -0.808594 3.949219 -0.945312 C 3.996094 -1.082031 4.019531 -1.238281 4.019531 -1.417969 C 4.019531 -1.679688 3.949219 -1.921875 3.800781 -2.148438 C 3.652344 -2.375 3.433594 -2.546875 3.140625 -2.664062 C 2.941406 -2.742188 2.710938 -2.832031 2.453125 -2.929688 C 2.195312 -3.023438 1.972656 -3.117188 1.785156 -3.203125 C 1.414062 -3.367188 1.128906 -3.585938 0.925781 -3.855469 C 0.71875 -4.121094 0.617188 -4.472656 0.617188 -4.90625 C 0.617188 -5.15625 0.667969 -5.386719 0.769531 -5.601562 C 0.871094 -5.816406 1.015625 -6.011719 1.203125 -6.179688 C 1.382812 -6.339844 1.59375 -6.464844 1.835938 -6.554688 C 2.078125 -6.644531 2.332031 -6.691406 2.597656 -6.691406 C 2.898438 -6.691406 3.167969 -6.644531 3.40625 -6.550781 C 3.644531 -6.460938 3.859375 -6.351562 4.058594 -6.230469 L 4.246094 -6.542969 L 4.617188 -6.542969 L 4.652344 -4.371094 L 4.28125 -4.371094 C 4.210938 -4.621094 4.136719 -4.859375 4.050781 -5.085938 C 3.964844 -5.3125 3.855469 -5.519531 3.722656 -5.703125 C 3.589844 -5.882812 3.429688 -6.023438 3.238281 -6.128906 C 3.046875 -6.238281 2.8125 -6.289062 2.535156 -6.289062 C 2.246094 -6.289062 1.996094 -6.195312 1.789062 -6.007812 C 1.582031 -5.820312 1.480469 -5.59375 1.480469 -5.320312 C 1.480469 -5.039062 1.546875 -4.804688 1.679688 -4.617188 C 1.8125 -4.433594 2.003906 -4.28125 2.253906 -4.160156 C 2.480469 -4.050781 2.699219 -3.957031 2.917969 -3.878906 C 3.132812 -3.800781 3.34375 -3.71875 3.546875 -3.628906 C 3.730469 -3.550781 3.90625 -3.457031 4.078125 -3.355469 C 4.25 -3.253906 4.398438 -3.136719 4.523438 -3.003906 Z "/>
</g>
<g id="glyph-0-1">
<path d="M 5.207031 -0.0820312 L 3.722656 0.0195312 L 3.652344 -0.046875 L 3.652344 -0.621094 L 3.625 -0.621094 C 3.550781 -0.546875 3.46875 -0.464844 3.375 -0.375 C 3.285156 -0.289062 3.179688 -0.210938 3.058594 -0.136719 C 2.921875 -0.0546875 2.785156 0.0078125 2.65625 0.0507812 C 2.527344 0.09375 2.347656 0.117188 2.109375 0.117188 C 1.707031 0.117188 1.402344 -0.015625 1.191406 -0.277344 C 0.980469 -0.542969 0.875 -0.921875 0.875 -1.421875 L 0.875 -3.597656 C 0.875 -3.707031 0.855469 -3.800781 0.8125 -3.875 C 0.773438 -3.953125 0.710938 -4.015625 0.628906 -4.070312 C 0.574219 -4.109375 0.503906 -4.136719 0.421875 -4.152344 C 0.335938 -4.167969 0.25 -4.179688 0.15625 -4.1875 L 0.15625 -4.492188 L 1.675781 -4.601562 L 1.742188 -4.539062 L 1.742188 -1.378906 C 1.742188 -1.050781 1.816406 -0.800781 1.964844 -0.636719 C 2.113281 -0.46875 2.289062 -0.386719 2.496094 -0.386719 C 2.664062 -0.386719 2.8125 -0.414062 2.945312 -0.464844 C 3.078125 -0.519531 3.191406 -0.578125 3.277344 -0.648438 C 3.363281 -0.714844 3.433594 -0.78125 3.496094 -0.855469 C 3.5625 -0.925781 3.609375 -0.992188 3.644531 -1.054688 L 3.644531 -3.628906 C 3.644531 -3.730469 3.621094 -3.820312 3.578125 -3.898438 C 3.535156 -3.976562 3.476562 -4.042969 3.398438 -4.097656 C 3.34375 -4.136719 3.261719 -4.160156 3.152344 -4.167969 C 3.042969 -4.175781 2.921875 -4.179688 2.785156 -4.1875 L 2.785156 -4.492188 L 4.441406 -4.601562 L 4.511719 -4.539062 L 4.511719 -0.929688 C 4.511719 -0.828125 4.53125 -0.738281 4.574219 -0.664062 C 4.617188 -0.589844 4.675781 -0.527344 4.753906 -0.476562 C 4.808594 -0.441406 4.875 -0.417969 4.953125 -0.40625 C 5.03125 -0.398438 5.113281 -0.390625 5.207031 -0.386719 Z "/>
</g>
<g id="glyph-0-2">
<path d="M 3.8125 -3.960938 C 3.8125 -3.804688 3.773438 -3.664062 3.699219 -3.542969 C 3.621094 -3.421875 3.503906 -3.363281 3.34375 -3.363281 C 3.171875 -3.363281 3.039062 -3.40625 2.949219 -3.496094 C 2.859375 -3.585938 2.8125 -3.683594 2.8125 -3.789062 C 2.8125 -3.859375 2.816406 -3.917969 2.828125 -3.976562 C 2.839844 -4.03125 2.851562 -4.085938 2.859375 -4.140625 C 2.714844 -4.140625 2.546875 -4.082031 2.351562 -3.964844 C 2.15625 -3.847656 1.992188 -3.683594 1.859375 -3.46875 L 1.859375 -0.820312 C 1.859375 -0.714844 1.878906 -0.625 1.921875 -0.558594 C 1.960938 -0.492188 2.027344 -0.441406 2.117188 -0.40625 C 2.195312 -0.375 2.292969 -0.351562 2.414062 -0.335938 C 2.535156 -0.320312 2.640625 -0.308594 2.730469 -0.304688 L 2.730469 0 L 0.332031 0 L 0.332031 -0.304688 C 0.402344 -0.308594 0.476562 -0.316406 0.550781 -0.324219 C 0.625 -0.328125 0.691406 -0.339844 0.746094 -0.359375 C 0.832031 -0.386719 0.898438 -0.4375 0.9375 -0.503906 C 0.980469 -0.574219 1 -0.664062 1 -0.773438 L 1 -3.578125 C 1 -3.675781 0.976562 -3.769531 0.933594 -3.859375 C 0.890625 -3.953125 0.828125 -4.027344 0.746094 -4.082031 C 0.6875 -4.117188 0.621094 -4.144531 0.539062 -4.160156 C 0.460938 -4.179688 0.375 -4.191406 0.28125 -4.195312 L 0.28125 -4.5 L 1.792969 -4.601562 L 1.859375 -4.539062 L 1.859375 -3.898438 L 1.882812 -3.898438 C 2.070312 -4.144531 2.285156 -4.335938 2.519531 -4.464844 C 2.75 -4.59375 2.964844 -4.65625 3.160156 -4.65625 C 3.351562 -4.65625 3.511719 -4.59375 3.632812 -4.46875 C 3.753906 -4.34375 3.8125 -4.171875 3.8125 -3.960938 Z "/>
</g>
<g id="glyph-0-3">
</g>
<g id="glyph-0-4">
<path d="M 2.460938 0 L 0.246094 0 L 0.246094 -0.304688 C 0.316406 -0.308594 0.390625 -0.316406 0.46875 -0.324219 C 0.550781 -0.332031 0.617188 -0.34375 0.667969 -0.359375 C 0.753906 -0.386719 0.820312 -0.4375 0.863281 -0.503906 C 0.90625 -0.574219 0.925781 -0.664062 0.925781 -0.773438 L 0.925781 -6.046875 C 0.925781 -6.15625 0.902344 -6.257812 0.855469 -6.355469 C 0.808594 -6.453125 0.746094 -6.53125 0.667969 -6.585938 C 0.613281 -6.621094 0.511719 -6.65625 0.363281 -6.6875 C 0.214844 -6.71875 0.0976562 -6.734375 0.0078125 -6.742188 L 0.0078125 -7.035156 L 1.71875 -7.136719 L 1.785156 -7.070312 L 1.785156 -0.828125 C 1.785156 -0.722656 1.804688 -0.632812 1.84375 -0.566406 C 1.882812 -0.496094 1.949219 -0.441406 2.039062 -0.40625 C 2.105469 -0.375 2.171875 -0.351562 2.238281 -0.335938 C 2.304688 -0.320312 2.378906 -0.308594 2.460938 -0.304688 Z "/>
</g>
<g id="glyph-0-5">
<path d="M 4.640625 -0.0820312 C 4.496094 -0.03125 4.367188 0.0117188 4.257812 0.0429688 C 4.148438 0.0742188 4.027344 0.09375 3.886719 0.09375 C 3.648438 0.09375 3.457031 0.0351562 3.3125 -0.0742188 C 3.171875 -0.1875 3.078125 -0.351562 3.039062 -0.566406 L 3.011719 -0.566406 C 2.8125 -0.347656 2.597656 -0.175781 2.367188 -0.0585938 C 2.140625 0.0585938 1.863281 0.117188 1.539062 0.117188 C 1.199219 0.117188 0.917969 0.0117188 0.699219 -0.199219 C 0.480469 -0.40625 0.367188 -0.679688 0.367188 -1.019531 C 0.367188 -1.195312 0.394531 -1.351562 0.441406 -1.488281 C 0.492188 -1.628906 0.566406 -1.753906 0.664062 -1.863281 C 0.742188 -1.957031 0.84375 -2.039062 0.96875 -2.109375 C 1.09375 -2.183594 1.210938 -2.238281 1.324219 -2.28125 C 1.460938 -2.335938 1.742188 -2.433594 2.164062 -2.574219 C 2.585938 -2.714844 2.871094 -2.824219 3.019531 -2.90625 L 3.019531 -3.363281 C 3.019531 -3.402344 3.011719 -3.476562 2.996094 -3.59375 C 2.976562 -3.707031 2.941406 -3.8125 2.886719 -3.914062 C 2.824219 -4.027344 2.738281 -4.128906 2.625 -4.210938 C 2.515625 -4.296875 2.355469 -4.339844 2.148438 -4.339844 C 2.007812 -4.339844 1.875 -4.316406 1.753906 -4.269531 C 1.632812 -4.21875 1.546875 -4.171875 1.5 -4.117188 C 1.5 -4.054688 1.511719 -3.964844 1.542969 -3.847656 C 1.570312 -3.726562 1.585938 -3.617188 1.585938 -3.515625 C 1.585938 -3.40625 1.539062 -3.308594 1.441406 -3.21875 C 1.34375 -3.128906 1.210938 -3.085938 1.039062 -3.085938 C 0.882812 -3.085938 0.769531 -3.140625 0.699219 -3.25 C 0.625 -3.359375 0.589844 -3.480469 0.589844 -3.617188 C 0.589844 -3.757812 0.640625 -3.890625 0.738281 -4.019531 C 0.839844 -4.148438 0.96875 -4.265625 1.128906 -4.367188 C 1.269531 -4.453125 1.4375 -4.527344 1.632812 -4.585938 C 1.828125 -4.644531 2.019531 -4.675781 2.207031 -4.675781 C 2.46875 -4.675781 2.691406 -4.660156 2.882812 -4.621094 C 3.078125 -4.585938 3.25 -4.511719 3.40625 -4.394531 C 3.566406 -4.28125 3.683594 -4.125 3.765625 -3.929688 C 3.847656 -3.734375 3.886719 -3.484375 3.886719 -3.175781 C 3.886719 -2.738281 3.882812 -2.347656 3.875 -2.007812 C 3.863281 -1.667969 3.859375 -1.296875 3.859375 -0.894531 C 3.859375 -0.773438 3.878906 -0.679688 3.921875 -0.609375 C 3.964844 -0.539062 4.027344 -0.476562 4.113281 -0.429688 C 4.160156 -0.402344 4.234375 -0.386719 4.332031 -0.382812 C 4.433594 -0.378906 4.535156 -0.378906 4.640625 -0.378906 L 4.640625 -0.0820312 M 3.03125 -2.519531 C 2.769531 -2.441406 2.539062 -2.367188 2.34375 -2.292969 C 2.144531 -2.21875 1.964844 -2.125 1.792969 -2.015625 C 1.640625 -1.910156 1.519531 -1.785156 1.429688 -1.640625 C 1.339844 -1.5 1.296875 -1.328125 1.296875 -1.132812 C 1.296875 -0.875 1.363281 -0.6875 1.496094 -0.566406 C 1.628906 -0.449219 1.800781 -0.386719 2.007812 -0.386719 C 2.222656 -0.386719 2.417969 -0.441406 2.582031 -0.546875 C 2.75 -0.652344 2.886719 -0.777344 3.003906 -0.921875 Z "/>
</g>
<g id="glyph-0-6">
<path d="M 5.703125 -1.945312 L 5.566406 0 L 0.453125 0 L 0.453125 -0.328125 C 0.527344 -0.332031 0.632812 -0.34375 0.773438 -0.359375 C 0.914062 -0.375 1.011719 -0.394531 1.066406 -0.417969 C 1.15625 -0.460938 1.222656 -0.519531 1.265625 -0.59375 C 1.308594 -0.671875 1.328125 -0.769531 1.328125 -0.890625 L 1.328125 -5.574219 C 1.328125 -5.679688 1.308594 -5.773438 1.273438 -5.851562 C 1.238281 -5.933594 1.167969 -5.996094 1.066406 -6.046875 C 0.996094 -6.082031 0.894531 -6.117188 0.769531 -6.152344 C 0.640625 -6.1875 0.535156 -6.210938 0.453125 -6.214844 L 0.453125 -6.542969 L 3.214844 -6.542969 L 3.214844 -6.214844 C 3.128906 -6.214844 3.015625 -6.199219 2.878906 -6.171875 C 2.742188 -6.140625 2.644531 -6.117188 2.582031 -6.097656 C 2.476562 -6.058594 2.40625 -5.996094 2.367188 -5.90625 C 2.328125 -5.816406 2.308594 -5.722656 2.308594 -5.621094 L 2.308594 -1.226562 C 2.308594 -1.023438 2.320312 -0.867188 2.339844 -0.753906 C 2.359375 -0.640625 2.40625 -0.554688 2.480469 -0.492188 C 2.550781 -0.4375 2.65625 -0.402344 2.796875 -0.386719 C 2.9375 -0.367188 3.132812 -0.359375 3.382812 -0.359375 C 3.5 -0.359375 3.617188 -0.363281 3.738281 -0.367188 C 3.863281 -0.375 3.980469 -0.386719 4.089844 -0.40625 C 4.199219 -0.425781 4.296875 -0.449219 4.386719 -0.480469 C 4.476562 -0.515625 4.546875 -0.554688 4.589844 -0.605469 C 4.714844 -0.746094 4.859375 -0.960938 5.027344 -1.246094 C 5.195312 -1.535156 5.3125 -1.769531 5.375 -1.945312 Z "/>
</g>
<g id="glyph-0-7">
<path d="M 5.355469 0 L 3.132812 0 L 3.132812 -0.304688 C 3.203125 -0.308594 3.28125 -0.316406 3.363281 -0.324219 C 3.449219 -0.328125 3.519531 -0.339844 3.574219 -0.359375 C 3.660156 -0.386719 3.722656 -0.4375 3.765625 -0.503906 C 3.808594 -0.574219 3.828125 -0.664062 3.828125 -0.773438 L 3.828125 -3.113281 C 3.828125 -3.433594 3.75 -3.683594 3.597656 -3.859375 C 3.445312 -4.035156 3.261719 -4.121094 3.042969 -4.121094 C 2.878906 -4.121094 2.730469 -4.097656 2.59375 -4.046875 C 2.457031 -3.996094 2.335938 -3.933594 2.234375 -3.859375 C 2.132812 -3.789062 2.050781 -3.714844 1.988281 -3.632812 C 1.929688 -3.550781 1.886719 -3.484375 1.859375 -3.433594 L 1.859375 -0.820312 C 1.859375 -0.714844 1.878906 -0.628906 1.921875 -0.5625 C 1.964844 -0.496094 2.03125 -0.441406 2.117188 -0.40625 C 2.179688 -0.375 2.25 -0.351562 2.328125 -0.335938 C 2.402344 -0.320312 2.480469 -0.308594 2.558594 -0.304688 L 2.558594 0 L 0.332031 0 L 0.332031 -0.304688 C 0.402344 -0.308594 0.476562 -0.316406 0.550781 -0.324219 C 0.625 -0.328125 0.691406 -0.339844 0.746094 -0.359375 C 0.832031 -0.386719 0.898438 -0.4375 0.9375 -0.503906 C 0.980469 -0.574219 1 -0.664062 1 -0.773438 L 1 -3.578125 C 1 -3.683594 0.976562 -3.78125 0.933594 -3.867188 C 0.890625 -3.953125 0.828125 -4.027344 0.746094 -4.082031 C 0.6875 -4.117188 0.621094 -4.144531 0.539062 -4.160156 C 0.460938 -4.179688 0.375 -4.191406 0.28125 -4.195312 L 0.28125 -4.5 L 1.792969 -4.601562 L 1.859375 -4.539062 L 1.859375 -3.898438 L 1.882812 -3.898438 C 1.957031 -3.96875 2.046875 -4.058594 2.15625 -4.160156 C 2.269531 -4.265625 2.375 -4.347656 2.472656 -4.414062 C 2.585938 -4.488281 2.71875 -4.546875 2.878906 -4.597656 C 3.035156 -4.648438 3.210938 -4.671875 3.40625 -4.671875 C 3.84375 -4.671875 4.167969 -4.535156 4.378906 -4.261719 C 4.589844 -3.992188 4.695312 -3.628906 4.695312 -3.175781 L 4.695312 -0.8125 C 4.695312 -0.703125 4.710938 -0.617188 4.75 -0.550781 C 4.785156 -0.484375 4.847656 -0.433594 4.9375 -0.398438 C 5.011719 -0.367188 5.078125 -0.34375 5.128906 -0.332031 C 5.183594 -0.320312 5.257812 -0.308594 5.355469 -0.304688 Z "/>
</g>
<g id="glyph-0-8">
<path d="M 4.371094 -1.070312 C 4.179688 -0.707031 3.925781 -0.417969 3.605469 -0.203125 C 3.285156 0.0117188 2.917969 0.121094 2.503906 0.121094 C 2.136719 0.121094 1.816406 0.0546875 1.542969 -0.0742188 C 1.265625 -0.203125 1.039062 -0.378906 0.863281 -0.597656 C 0.683594 -0.820312 0.550781 -1.078125 0.464844 -1.375 C 0.375 -1.667969 0.332031 -1.980469 0.332031 -2.308594 C 0.332031 -2.605469 0.378906 -2.894531 0.472656 -3.179688 C 0.566406 -3.464844 0.703125 -3.71875 0.886719 -3.949219 C 1.0625 -4.164062 1.277344 -4.339844 1.539062 -4.476562 C 1.796875 -4.609375 2.089844 -4.675781 2.410156 -4.675781 C 2.742188 -4.675781 3.027344 -4.625 3.265625 -4.519531 C 3.5 -4.414062 3.695312 -4.273438 3.839844 -4.089844 C 3.984375 -3.917969 4.089844 -3.714844 4.15625 -3.480469 C 4.226562 -3.246094 4.261719 -2.996094 4.261719 -2.71875 L 4.261719 -2.417969 L 1.25 -2.417969 C 1.25 -2.117188 1.277344 -1.847656 1.335938 -1.601562 C 1.390625 -1.359375 1.480469 -1.144531 1.605469 -0.960938 C 1.726562 -0.78125 1.882812 -0.640625 2.074219 -0.539062 C 2.269531 -0.433594 2.5 -0.382812 2.765625 -0.382812 C 3.039062 -0.382812 3.277344 -0.445312 3.476562 -0.574219 C 3.671875 -0.703125 3.863281 -0.933594 4.046875 -1.269531 L 4.371094 -1.070312 M 3.351562 -2.804688 C 3.351562 -2.976562 3.335938 -3.160156 3.308594 -3.355469 C 3.28125 -3.550781 3.234375 -3.714844 3.167969 -3.847656 C 3.097656 -3.988281 3 -4.101562 2.878906 -4.191406 C 2.753906 -4.28125 2.597656 -4.324219 2.402344 -4.324219 C 2.078125 -4.324219 1.8125 -4.191406 1.597656 -3.921875 C 1.382812 -3.65625 1.269531 -3.28125 1.25 -2.804688 Z "/>
</g>
</g>
</defs>
<g fill="rgb(92.54902%, 94.117647%, 94.509804%)" fill-opacity="1">
<use xlink:href="#glyph-0-0" x="30" y="28.65918"/>
<use xlink:href="#glyph-0-1" x="35" y="28.65918"/>
<use xlink:href="#glyph-0-2" x="40" y="28.65918"/>
<use xlink:href="#glyph-0-3" x="44" y="28.65918"/>
<use xlink:href="#glyph-0-4" x="46" y="28.65918"/>
<use xlink:href="#glyph-0-5" x="49" y="28.65918"/>
<use xlink:href="#glyph-0-3" x="54" y="28.65918"/>
<use xlink:href="#glyph-0-6" x="56" y="28.65918"/>
<use xlink:href="#glyph-0-1" x="62" y="28.65918"/>
<use xlink:href="#glyph-0-7" x="67" y="28.65918"/>
<use xlink:href="#glyph-0-8" x="73" y="28.65918"/>
</g>
</svg>
