<?xml version="1.0" encoding="UTF-8"?>
<svg xmlns="http://www.w3.org/2000/svg" xmlns:xlink="http://www.w3.org/1999/xlink" width="1080" height="1920" viewBox="0 0 1080 1920">
<defs>
<g>
<g id="glyph-0-0">
<path d="M 7.378906 -6.085938 C 7.425781 -6.0625 7.453125 -6.011719 7.453125 -5.9375 C 7.453125 -5.867188 7.441406 -5.816406 7.414062 -5.792969 C 6.898438 -5.152344 6.296875 -4.367188 5.605469 -3.429688 C 6.074219 -2.496094 6.429688 -1.78125 6.675781 -1.292969 C 6.652344 -1.242188 6.601562 -1.207031 6.53125 -1.179688 L 6.53125 -1.105469 C 6.503906 -1.058594 6.445312 -1.007812 6.34375 -0.960938 C 6.417969 -0.835938 6.417969 -0.761719 6.34375 -0.738281 C 6.269531 -0.6875 6.222656 -0.652344 6.199219 -0.628906 C 6.097656 -0.578125 6 -0.613281 5.902344 -0.738281 C 5.535156 -1.230469 5.175781 -1.78125 4.832031 -2.398438 C 4.191406 -1.4375 3.628906 -0.554688 3.136719 0.257812 C 3.011719 0.453125 2.925781 0.566406 2.878906 0.589844 C 2.804688 0.640625 2.691406 0.652344 2.546875 0.628906 C 2.421875 0.652344 2.347656 0.628906 2.324219 0.554688 C 2.300781 0.503906 2.261719 0.429688 2.214844 0.332031 C 2.164062 0.28125 2.140625 0.222656 2.140625 0.148438 C 2.164062 0.0742188 2.1875 -0.0117188 2.214844 -0.109375 L 2.101562 -0.296875 C 2.398438 -0.859375 3.136719 -1.90625 4.316406 -3.429688 C 3.972656 -4.144531 3.675781 -4.871094 3.429688 -5.605469 C 3.429688 -5.679688 3.492188 -5.765625 3.617188 -5.867188 C 3.6875 -5.9375 3.75 -5.953125 3.800781 -5.902344 C 3.824219 -5.851562 3.875 -5.839844 3.949219 -5.867188 C 4.019531 -5.890625 4.070312 -5.925781 4.09375 -5.976562 C 4.121094 -6 4.15625 -6.011719 4.207031 -6.011719 C 4.28125 -5.988281 4.328125 -5.953125 4.351562 -5.902344 C 4.476562 -5.605469 4.722656 -5.117188 5.089844 -4.425781 C 5.582031 -4.992188 6.074219 -5.582031 6.566406 -6.199219 C 6.589844 -6.246094 6.628906 -6.269531 6.675781 -6.269531 C 6.75 -6.269531 6.824219 -6.234375 6.898438 -6.160156 C 6.972656 -6.085938 7.023438 -6.074219 7.046875 -6.125 C 7.09375 -6.148438 7.132812 -6.171875 7.15625 -6.199219 C 7.207031 -6.246094 7.230469 -6.257812 7.230469 -6.234375 C 7.253906 -6.183594 7.304688 -6.136719 7.378906 -6.085938 Z "/>
</g>
</g>
</defs>
<g fill="rgb(90.588235%, 29.803922%, 23.529412%)" fill-opacity="1">
<use xlink:href="#glyph-0-0" x="30" y="28.115234"/>
</g>
</svg>
